<?xml version="1.0" encoding="UTF-8"?>
<!DOCTYPE svg PUBLIC "-//W3C//DTD SVG 1.1//EN" "http://www.w3.org/Graphics/SVG/1.1/DTD/svg11.dtd">
<svg version="1.1" xmlns="http://www.w3.org/2000/svg" xmlns:xlink="http://www.w3.org/1999/xlink" x="0" y="0" width="1000" height="550" viewBox="0, 0, 1000, 550">
  <defs>
    <clipPath id="Clip_1">
      <path d="M368.204,31.997 C350.084,33.864 335.235,38.373 317.743,43.83 L317.743,43.83 C306.527,47.327 294.469,49.909 284.459,56.352 L284.459,56.352 C277.291,60.953 264.259,70.937 264.143,80.203 L264.143,80.203 C263.912,100.337 319.791,123.594 394.979,124.563 L394.979,124.563 C396.598,124.595 398.202,124.602 399.803,124.602 L399.803,124.602 C474.447,124.602 526.709,102.947 526.956,83.523 L526.956,83.523 C527.105,71.953 513.015,62.819 505.087,56.318 L505.087,56.318 C495.244,48.235 481.005,47.144 469.227,43.559 L469.227,43.559 C452.973,38.61 435.895,37.456 419.328,33.946 L419.328,33.946 C409.978,31.949 398.628,31.039 387.535,31.039 L387.535,31.039 C380.831,31.039 374.22,31.372 368.204,31.997 z"/>
    </clipPath>
    <clipPath id="Clip_2">
      <path d="M562.023,80.229 C561.776,100.353 617.638,123.61 692.777,124.584 L692.777,124.584 C694.396,124.601 696.015,124.611 697.617,124.611 L697.617,124.611 C772.211,124.611 824.456,102.973 824.705,83.553 L824.705,83.553 C824.935,63.397 769.041,40.13 693.867,39.164 L693.867,39.164 C692.282,39.149 690.663,39.149 689.076,39.149 L689.076,39.149 C614.516,39.149 562.271,60.787 562.023,80.229 z"/>
    </clipPath>
    <clipPath id="Clip_3">
      <path d="M739.422,244.113 C728.241,247.698 716.842,253.463 706.371,258.914 L706.371,258.914 C693.701,265.471 681.758,269.013 670.956,278.891 L670.956,278.891 C661.706,287.331 645.982,293.078 645.982,308.82 L645.982,308.82 C645.982,335.655 705.446,357.417 778.8,357.417 L778.8,357.417 C852.123,357.417 911.587,335.655 911.587,308.82 L911.587,308.82 C911.587,302.196 907.919,296.443 903.657,291.933 L903.657,291.933 C900.635,288.735 897.134,286.042 893.516,283.657 L893.516,283.657 C889.717,281.154 889.619,280.288 887.719,276.215 L887.719,276.215 C881.987,263.761 867.815,255.963 856.071,251.289 L856.071,251.289 C842.675,245.963 829.643,240.585 815.338,238.505 L815.338,238.505 C806.436,237.199 797.56,236.521 788.732,236.521 L788.732,236.521 C772.056,236.522 755.559,238.941 739.422,244.113 z"/>
    </clipPath>
    <clipPath id="Clip_4">
      <path d="M739.422,244.113 C728.241,247.698 716.842,253.463 706.371,258.914 L706.371,258.914 C693.701,265.471 681.758,269.013 670.956,278.891 L670.956,278.891 C661.706,287.331 645.982,293.078 645.982,308.82 L645.982,308.82 C645.982,335.655 705.446,357.417 778.8,357.417 L778.8,357.417 C852.123,357.417 911.587,335.655 911.587,308.82 L911.587,308.82 C911.587,302.196 907.919,296.443 903.657,291.933 L903.657,291.933 C900.635,288.735 897.134,286.042 893.516,283.657 L893.516,283.657 C889.717,281.154 889.619,280.288 887.719,276.215 L887.719,276.215 C881.987,263.761 867.815,255.963 856.071,251.289 L856.071,251.289 C842.675,245.963 829.643,240.585 815.338,238.505 L815.338,238.505 C806.436,237.199 797.56,236.521 788.732,236.521 L788.732,236.521 C772.056,236.522 755.559,238.941 739.422,244.113 z"/>
    </clipPath>
    <clipPath id="Clip_5">
      <path d="M739.422,244.113 C728.241,247.698 716.842,253.463 706.371,258.914 L706.371,258.914 C693.701,265.471 681.758,269.013 670.956,278.891 L670.956,278.891 C661.706,287.331 645.982,293.078 645.982,308.82 L645.982,308.82 C645.982,335.655 705.446,357.417 778.8,357.417 L778.8,357.417 C852.123,357.417 911.587,335.655 911.587,308.82 L911.587,308.82 C911.587,302.196 907.919,296.443 903.657,291.933 L903.657,291.933 C900.635,288.735 897.134,286.042 893.516,283.657 L893.516,283.657 C889.717,281.154 889.619,280.288 887.719,276.215 L887.719,276.215 C881.987,263.761 867.815,255.963 856.071,251.289 L856.071,251.289 C842.675,245.963 829.643,240.585 815.338,238.505 L815.338,238.505 C806.436,237.199 797.56,236.521 788.732,236.521 L788.732,236.521 C772.056,236.522 755.559,238.941 739.422,244.113 z"/>
    </clipPath>
    <clipPath id="Clip_6">
      <path d="M739.422,244.113 C728.241,247.698 716.842,253.463 706.371,258.914 L706.371,258.914 C693.701,265.471 681.758,269.013 670.956,278.891 L670.956,278.891 C661.706,287.331 645.982,293.078 645.982,308.82 L645.982,308.82 C645.982,335.655 705.446,357.417 778.8,357.417 L778.8,357.417 C852.123,357.417 911.587,335.655 911.587,308.82 L911.587,308.82 C911.587,302.196 907.919,296.443 903.657,291.933 L903.657,291.933 C900.635,288.735 897.134,286.042 893.516,283.657 L893.516,283.657 C889.717,281.154 889.619,280.288 887.719,276.215 L887.719,276.215 C881.987,263.761 867.815,255.963 856.071,251.289 L856.071,251.289 C842.675,245.963 829.643,240.585 815.338,238.505 L815.338,238.505 C806.436,237.199 797.56,236.521 788.732,236.521 L788.732,236.521 C772.056,236.522 755.559,238.941 739.422,244.113 z"/>
    </clipPath>
    <clipPath id="Clip_7">
      <path d="M739.422,244.113 C728.241,247.698 716.842,253.463 706.371,258.914 L706.371,258.914 C693.701,265.471 681.758,269.013 670.956,278.891 L670.956,278.891 C661.706,287.331 645.982,293.078 645.982,308.82 L645.982,308.82 C645.982,335.655 705.446,357.417 778.8,357.417 L778.8,357.417 C852.123,357.417 911.587,335.655 911.587,308.82 L911.587,308.82 C911.587,302.196 907.919,296.443 903.657,291.933 L903.657,291.933 C900.635,288.735 897.134,286.042 893.516,283.657 L893.516,283.657 C889.717,281.154 889.619,280.288 887.719,276.215 L887.719,276.215 C881.987,263.761 867.815,255.963 856.071,251.289 L856.071,251.289 C842.675,245.963 829.643,240.585 815.338,238.505 L815.338,238.505 C806.436,237.199 797.56,236.521 788.732,236.521 L788.732,236.521 C772.056,236.522 755.559,238.941 739.422,244.113 z"/>
    </clipPath>
    <clipPath id="Clip_8">
      <path d="M192.64,103.091 L149.397,103.091 L149.397,116.96 C148.505,116.975 127.396,133.071 126.206,139.143 L126.206,139.143 C126.074,139.843 126.008,143.379 125.992,144.214 L125.992,144.214 C125.942,146.98 125.992,146.988 125.992,149.747 L125.992,149.747 L125.992,180.098 L125.992,266.055 L125.992,328.756 L125.992,332.846 C125.992,344.062 155.822,353.146 192.64,353.146 L192.64,353.146 C229.425,353.146 259.274,344.062 259.274,332.846 L259.274,332.846 L259.274,328.756 L259.274,266.055 L259.274,180.098 L259.274,149.747 C259.274,146.988 259.322,146.98 259.274,144.214 L259.274,144.214 C259.274,143.379 259.174,139.843 259.042,139.143 L259.042,139.143 C257.87,133.071 236.759,116.975 235.868,116.96 L235.868,116.96 L235.868,103.091 z"/>
    </clipPath>
  </defs>
  <g id="Layer_1">
    <g>
      <path d="M838.73,91.622 L502.032,91.622 L165.335,91.622 L40.064,442.466 L502.032,442.466 L964,442.466 z" fill="#CDCECD"/>
      <path d="M165.335,171.261 L838.664,171.261 L838.664,91.622 L165.335,91.622 z" fill="#9A9B9A"/>
      <path d="M165.335,171.26 L40.064,521 L40.064,442.466 L165.335,91.622 z" fill="#9A9B9A"/>
      <path d="M838.664,171.26 L964,521 L964,442.466 L838.73,91.622 z" fill="#9A9B9A"/>
      <path d="M435.151,269.608 L355.966,269.608 L362.045,243.756 L429.072,243.756 z" fill="#EEA52D"/>
      <path d="M536.174,83.633 L535.58,83.626 C535.232,111.978 472.234,134.178 394.866,133.197 C317.546,132.189 255.158,108.436 255.539,80.076 L254.943,80.076 C255.934,71.675 256.363,254.95 393.049,256.684 C529.468,258.417 535.465,75.831 536.174,83.633" fill="#EEA52D"/>
      <path d="M535.579,83.627 C535.232,111.979 472.234,134.178 394.865,133.197 C317.545,132.189 255.157,108.437 255.538,80.076 C255.902,51.705 318.883,29.515 396.169,30.49 C473.54,31.481 535.943,55.257 535.579,83.627" fill="#FACF6E"/>
      <path d="M399.804,124.598 C398.202,124.598 396.599,124.591 394.98,124.559 C319.792,123.59 263.895,100.326 264.144,80.198 C264.425,60.75 316.669,39.085 391.281,39.085 C392.866,39.085 394.452,39.085 396.071,39.112 C471.292,40.076 527.205,63.343 526.958,83.519 C526.709,102.943 474.448,124.598 399.804,124.598" fill="#EC932D"/>
    </g>
    <g clip-path="url(#Clip_1)">
      <path d="M395.673,44.236 C394.601,44.666 393.593,45.285 392.75,45.993 C391.329,43.649 390.387,40.437 389.794,37.256 C381.634,35.754 377.24,41.733 374.069,47.761 C370.848,39.58 365.082,44.402 360.656,49.331 C358.658,44.468 349.986,49.275 346.896,49.043 C344.552,48.862 345.013,47.012 342.454,47.348 C339.844,47.68 338.241,49.528 336.276,51.23 C334.112,48.108 332.906,44.072 328.363,44.804 C323.426,45.608 324.862,50.768 322.649,52.842 C320.369,54.997 319.246,53.461 316.636,54.775 C315.233,55.476 314.505,58.366 312.838,58.713 C310.26,59.242 303.802,53.75 304.183,61.284 C296.634,62.241 296.815,62.76 291.778,67.973 C285.731,62.28 282.379,69.499 278.48,71.794 C275.904,73.308 274.583,71.283 272.105,74.95 C269.725,78.479 268.025,87.734 267.974,91.946 C267.876,99.141 267.959,104.434 276.482,110.562 C303.241,122.845 349.54,132.623 396.4,133.208 C417.692,133.455 439.413,133.45 460.505,130.003 C480.295,126.733 503.105,124.883 519.26,112.016 C524.331,107.986 527.287,102.544 526.643,95.91 C526.345,92.815 524.775,89.463 524.199,86.645 C523.586,83.539 524.297,81.665 521.902,78.518 C518.466,74.008 517.145,75.676 511.694,74.465 C512.239,70.358 508.969,70.308 505.781,70.549 C505.534,66.525 504.477,62.529 499.404,63.596 C501.123,51.957 487.231,59.812 483.3,59.102 C480.575,58.598 481.501,55.337 477.783,55.095 C475.834,54.98 471.986,57.864 470.697,59.185 C469.294,50.398 461.777,49.282 454.906,53.195 C449.438,47.029 448.234,44.6 441.049,48.317 C438.801,44.936 438.471,40.884 433.796,42.122 C430.873,42.905 428.593,47.309 426.462,49.49 C424.332,47.976 421.672,47.507 419.674,49.143 C413.827,42.294 410.787,44.64 402.76,47.59 C402.264,43.236 398.795,42.932 395.673,44.236" fill="#FFFFFE"/>
      <path d="M399.076,45.697 C399.555,45.201 400.033,44.599 400.529,43.962 C399.142,43.327 397.358,43.532 395.673,44.236 L395.458,44.335 C396.698,44.401 397.97,44.887 399.076,45.697" fill="#E8F5F9"/>
      <path d="M427.553,49.406 C434.391,45.482 441.906,46.598 443.327,55.392 C444.616,54.054 448.464,51.174 450.397,51.306 C454.113,51.527 453.188,54.807 455.915,55.287 C458.244,55.722 464.057,53.163 468.054,53.393 C464.949,50.189 459.78,50.421 454.907,53.195 C449.438,47.028 448.234,44.599 441.049,48.317 C438.801,44.936 438.471,40.883 433.796,42.121 C431.137,42.838 429.023,46.532 427.04,48.834 C427.206,49.032 427.355,49.198 427.553,49.406" fill="#E8F5F9"/>
      <path d="M392.304,45.35 L392.37,45.299 C391.164,43.021 390.322,40.14 389.794,37.255 C383.715,36.142 379.735,39.156 376.794,43.251 C383.798,40.585 386.804,38.918 392.304,45.35" fill="#E8F5F9"/>
      <path d="M526.643,95.91 C526.345,92.815 524.776,89.462 524.199,86.644 C523.587,83.539 524.297,81.665 521.902,78.517 C518.467,74.008 517.146,75.676 511.694,74.465 C512.239,70.358 508.969,70.307 505.781,70.549 C505.534,66.525 504.477,62.528 499.405,63.596 C501.123,51.957 487.231,59.812 483.301,59.101 C480.576,58.597 481.501,55.336 477.783,55.094 C476.347,55.007 473.886,56.564 472.168,57.904 C472.185,58.465 472.134,59.093 472.036,59.797 C477.107,58.729 478.164,62.726 478.411,66.74 C481.582,66.508 484.853,66.559 484.309,70.664 C489.758,71.877 491.064,70.209 494.516,74.728 C496.911,77.856 496.184,79.723 496.812,82.839 C497.39,85.636 498.96,89.023 499.273,92.111 C499.9,98.735 496.96,104.179 491.873,108.217 C475.752,121.066 452.907,122.934 433.12,126.196 C412.043,129.649 390.306,129.655 369.015,129.402 C357.65,129.26 346.335,128.566 335.302,127.443 C354.413,130.812 375.341,132.937 396.401,133.207 C417.692,133.454 439.413,133.449 460.505,130.002 C480.295,126.733 503.105,124.882 519.26,112.016 C524.331,107.985 527.287,102.544 526.643,95.91" fill="#E8F5F9"/>
    </g>
    <g>
      <path d="M254.942,80.08 L255.074,80.08 C255.025,79.733 254.976,79.706 254.942,80.08" fill="#66B6D1"/>
      <path d="M536.042,83.637 L536.174,83.637 C536.14,83.317 536.108,83.35 536.042,83.637" fill="#66B6D1"/>
      <path d="M535.579,83.63 C535.464,93.548 527.651,102.699 514.255,110.38 C503.535,161.386 471.804,249.734 376.728,248.535 C359.401,248.303 344.255,245.148 331.024,239.856 C347.74,249.988 368.107,256.363 393.048,256.687 C523.901,258.345 534.754,90.419 536.042,83.637 z" fill="#E8812C"/>
      <path d="M429.072,243.76 L416.139,243.76 L422.218,269.612 L435.151,269.612 z" fill="#E8812C"/>
      <path d="M314.994,81.541 L314.438,82.329 L315.349,81.969 C315.319,81.884 315.205,81.688 314.994,81.541 L314.438,82.329 L315.349,81.969 L315.04,82.091 L315.369,82.037 L315.349,81.969 L315.04,82.091 L315.369,82.037 L315.368,81.986 C315.364,81.889 315.4,81.688 315.463,81.534 L315.554,81.355 L315.581,81.319 L315.583,81.318 L315.444,81.184 L315.572,81.326 L315.583,81.318 L315.444,81.184 L315.572,81.326 L315.574,81.324 L315.62,81.287 L315.623,81.289 L315.821,81.275 C316.058,81.269 316.503,81.33 317.152,81.335 C317.736,81.338 318.549,81.259 319.366,80.861 L319.409,80.839 C320.077,80.482 320.393,80.097 320.67,79.782 C321.066,79.301 321.337,78.889 321.574,78.603 L321.851,78.3 L321.912,78.249 L321.915,78.246 L321.8,78.052 L321.898,78.256 L321.915,78.246 L321.8,78.052 L321.898,78.256 L321.924,78.243 C322.32,78.052 322.599,77.992 322.923,77.989 C323.211,77.989 323.553,78.045 324.018,78.221 C325.112,78.637 326.342,78.158 326.868,77.113 C327.164,76.528 327.439,76.267 327.631,76.139 C327.827,76.013 327.967,75.973 328.209,75.968 C328.557,75.959 329.151,76.137 329.753,76.551 C330.354,76.957 330.937,77.575 331.308,78.184 C331.966,79.258 333.371,79.594 334.445,78.936 C335.519,78.277 335.858,76.871 335.198,75.797 C334.469,74.615 333.488,73.579 332.321,72.779 C331.155,71.991 329.775,71.413 328.209,71.404 C327.169,71.399 326.052,71.699 325.095,72.343 C324.134,72.984 323.361,73.925 322.79,75.063 L324.83,76.088 L325.64,73.955 C324.76,73.62 323.847,73.426 322.923,73.426 C321.868,73.422 320.828,73.691 319.904,74.151 L320.914,76.198 L319.93,74.139 C319.307,74.439 318.859,74.829 318.504,75.191 C317.978,75.738 317.631,76.255 317.376,76.59 C317.252,76.756 317.152,76.876 317.117,76.913 L317.105,76.927 L317.759,77.614 L317.332,76.775 C317.162,76.864 317.108,76.925 317.105,76.927 L317.759,77.614 L317.332,76.775 L318.37,78.808 L317.374,76.754 L317.354,76.759 L317.152,76.771 C316.912,76.778 316.469,76.717 315.821,76.712 C315.381,76.712 314.832,76.753 314.236,76.94 C313.641,77.125 313.025,77.471 312.511,77.942 L312.513,77.94 C311.887,78.513 311.5,79.166 311.226,79.841 C310.957,80.519 310.806,81.228 310.804,81.986 C310.806,82.512 310.879,83.068 311.105,83.649 C311.329,84.222 311.74,84.833 312.364,85.27 C313.394,85.996 314.816,85.751 315.544,84.721 C316.271,83.691 316.024,82.268 314.994,81.541" fill="#B4B5B4"/>
      <path d="M358.915,90.653 L359,90.377 C359.059,90.281 359.199,90.135 359.502,90.002 C359.796,89.87 360.228,89.777 360.674,89.778 C361.335,89.772 361.997,89.986 362.325,90.237 C362.494,90.36 362.589,90.475 362.648,90.584 C362.705,90.695 362.748,90.81 362.751,91.045 L362.743,91.223 C362.672,92.087 363.088,92.908 363.827,93.357 C364.566,93.809 365.488,93.806 366.224,93.347 C366.961,92.887 367.589,92.524 368.055,92.312 C368.524,92.092 368.806,92.055 368.818,92.064 L368.818,91.911 L368.788,92.059 L368.818,92.064 L368.818,91.911 L368.788,92.059 L368.847,91.783 L368.683,92.016 L368.788,92.059 L368.847,91.783 L368.683,92.016 L368.759,92.092 C368.923,92.268 369.287,92.887 369.632,93.993 C369.919,94.898 370.738,95.529 371.687,95.578 C372.467,95.617 373.346,95.607 374.266,95.636 C375.633,95.666 377.084,95.824 377.867,96.135 C378.263,96.284 378.449,96.441 378.49,96.495 C378.524,96.558 378.535,96.5 378.551,96.756 C378.551,96.866 378.534,97.043 378.474,97.287 C378.177,98.511 378.928,99.746 380.152,100.044 C381.377,100.341 382.612,99.591 382.909,98.366 C383.04,97.828 383.114,97.294 383.114,96.756 C383.117,95.961 382.942,95.164 382.59,94.474 C382.285,93.87 381.857,93.361 381.392,92.965 C380.57,92.27 379.662,91.891 378.774,91.632 C377.438,91.253 376.086,91.145 374.867,91.091 C373.656,91.042 372.553,91.055 371.924,91.022 L371.805,93.3 L373.979,92.606 C373.512,91.165 373.003,90.025 372.181,89.073 C371.77,88.603 371.259,88.189 370.665,87.908 C370.073,87.625 369.419,87.497 368.818,87.5 C367.8,87.507 366.951,87.805 366.159,88.162 C365.366,88.525 364.61,88.977 363.81,89.474 L365.016,91.411 L367.291,91.597 C367.304,91.421 367.315,91.238 367.315,91.045 C367.316,90.1 367.083,89.181 366.66,88.407 C366.024,87.236 365.023,86.431 363.977,85.936 C362.922,85.44 361.795,85.218 360.674,85.215 C359.319,85.222 357.944,85.536 356.726,86.335 C356.122,86.736 355.561,87.272 355.138,87.945 C354.712,88.617 354.438,89.423 354.368,90.266 C354.26,91.521 355.192,92.625 356.449,92.733 C357.704,92.84 358.808,91.908 358.915,90.653" fill="#B4B5B4"/>
      <path d="M404.619,67.249 L403.961,68.02 L404.878,67.601 C404.807,67.442 404.695,67.311 404.619,67.249 L403.961,68.02 L404.878,67.601 L403.898,68.049 L404.979,68.049 C404.979,67.931 404.951,67.76 404.878,67.601 L403.898,68.049 L404.979,68.049 L404.304,68.049 L404.952,68.252 L404.979,68.049 L404.304,68.049 L404.952,68.252 L404.942,68.249 L404.954,68.255 L404.952,68.252 L404.942,68.249 L404.954,68.255 C404.986,68.181 405.196,67.934 405.456,67.78 C405.715,67.614 405.998,67.543 406.135,67.548 L406.375,67.628 C406.469,67.701 406.689,67.915 406.913,68.516 C407.17,69.209 407.757,69.742 408.472,69.932 C409.188,70.119 409.959,69.945 410.525,69.468 C411.403,68.697 413.078,68.095 414.488,68.113 C415.498,68.11 416.3,68.387 416.74,68.761 C416.968,68.951 417.137,69.16 417.278,69.475 C417.415,69.788 417.523,70.221 417.523,70.85 L417.526,71.002 C417.575,72.261 418.636,73.242 419.896,73.193 C421.154,73.144 422.135,72.083 422.086,70.823 L421.416,70.848 L422.086,70.85 L422.086,70.823 L421.416,70.848 L422.086,70.85 C422.088,69.686 421.878,68.597 421.454,67.633 C420.821,66.182 419.691,65.086 418.44,64.448 C417.183,63.802 415.821,63.553 414.488,63.55 C411.978,63.57 409.492,64.396 407.581,65.98 L409.054,67.724 L411.194,66.933 C410.749,65.727 410.07,64.712 409.154,64.008 C408.242,63.3 407.132,62.978 406.135,62.985 C404.584,63 403.3,63.619 402.302,64.445 C401.801,64.866 401.368,65.353 401.023,65.935 C400.687,66.515 400.421,67.21 400.416,68.049 C400.414,68.516 400.509,69.027 400.727,69.5 C400.944,69.974 401.277,70.398 401.661,70.725 C402.62,71.54 404.061,71.425 404.878,70.466 C405.695,69.505 405.578,68.066 404.619,67.249" fill="#B4B5B4"/>
      <path d="M439.687,101.982 L439.672,101.764 C439.667,101.393 439.809,100.818 440.142,100.184 C440.629,99.232 441.526,98.191 442.425,97.484 C442.87,97.128 443.317,96.852 443.669,96.691 C443.845,96.61 443.993,96.558 444.1,96.531 L444.257,96.5 L444.257,95.957 L444.078,96.463 L444.257,96.5 L444.257,95.957 L444.078,96.463 L444.391,95.578 L443.613,96.106 C443.694,96.24 443.917,96.415 444.078,96.463 L444.391,95.578 L443.613,96.106 L444.005,95.839 L443.552,95.991 L443.613,96.106 L444.005,95.839 L443.552,95.991 L443.57,96.101 C443.689,97.143 444.496,97.965 445.532,98.105 C446.571,98.246 447.566,97.665 447.956,96.693 C448.185,96.133 448.471,95.822 448.77,95.614 C449.073,95.411 449.408,95.314 449.761,95.313 C450.158,95.313 450.566,95.441 450.916,95.707 C451.265,95.977 451.576,96.372 451.769,97.038 C451.994,97.83 452.628,98.44 453.428,98.633 C454.228,98.826 455.072,98.574 455.634,97.972 L455.517,97.865 L455.627,97.978 L455.634,97.972 L455.517,97.865 L455.627,97.978 C455.627,97.977 455.711,97.904 455.87,97.823 C456.349,97.556 457.406,97.288 458.271,97.302 C458.922,97.292 459.454,97.452 459.573,97.539 L459.608,97.562 L459.81,97.349 L459.544,97.462 L459.608,97.562 L459.81,97.349 L459.544,97.462 L459.769,97.366 L459.527,97.413 L459.544,97.462 L459.769,97.366 L459.527,97.413 L459.529,97.439 L459.531,97.586 C459.573,98.844 460.63,99.831 461.89,99.787 C463.15,99.743 464.135,98.685 464.091,97.425 L462.785,97.471 L464.092,97.471 L464.091,97.425 L462.785,97.471 L464.092,97.471 L464.092,97.439 C464.096,96.635 463.883,95.813 463.467,95.138 C462.842,94.113 461.89,93.513 460.995,93.185 C460.085,92.852 459.17,92.74 458.271,92.738 C457.166,92.74 456.08,92.914 455.074,93.234 C454.067,93.572 453.127,93.997 452.296,94.859 L453.964,96.415 L456.16,95.793 C455.722,94.235 454.823,92.938 453.673,92.072 C452.527,91.201 451.146,90.749 449.761,90.749 C448.531,90.748 447.285,91.108 446.211,91.837 C445.135,92.561 444.252,93.657 443.719,94.995 L445.839,95.844 L448.105,95.587 C448.004,94.667 447.659,93.691 446.894,92.955 C446.519,92.595 446.062,92.322 445.602,92.16 C445.14,91.998 444.683,91.937 444.257,91.937 C443.011,91.955 441.991,92.383 441.008,92.938 C439.547,93.787 438.182,95.025 437.08,96.507 C436,97.992 435.129,99.732 435.108,101.764 C435.108,102.058 435.129,102.357 435.174,102.655 C435.36,103.902 436.521,104.761 437.767,104.577 C439.014,104.389 439.873,103.229 439.687,101.982" fill="#B4B5B4"/>
      <path d="M732.916,269.554 L653.797,269.554 L659.876,243.711 L726.854,243.711 z" fill="#A6D7D1"/>
      <path d="M833.923,83.671 L833.312,83.664 C832.966,111.999 769.999,134.182 692.68,133.207 C615.409,132.199 553.055,108.457 553.402,80.112 L552.808,80.112 C553.814,71.721 554.229,254.893 690.863,256.628 C827.217,258.362 833.213,75.869 833.923,83.671" fill="#A6D7D1"/>
      <path d="M833.312,83.664 C832.965,111.999 769.999,134.182 692.679,133.207 C615.409,132.199 553.055,108.457 553.401,80.112 C553.782,51.759 616.731,29.574 693.985,30.55 C771.303,31.541 833.659,55.309 833.312,83.664" fill="#C5E5E5"/>
      <path d="M697.618,124.612 C696.016,124.612 694.398,124.602 692.779,124.585 C617.639,123.611 561.775,100.354 562.024,80.229 C562.271,60.788 614.517,39.15 689.078,39.15 C690.665,39.15 692.283,39.15 693.868,39.165 C769.041,40.131 824.936,63.398 824.706,83.556 C824.457,102.974 772.213,124.612 697.618,124.612" fill="#88CCCD"/>
      <path d="M552.807,80.112 L552.971,80.112 C552.905,79.755 552.856,79.74 552.807,80.112" fill="#66B6D1"/>
      <path d="M833.774,83.671 L833.923,83.671 C833.889,83.35 833.823,83.373 833.774,83.671" fill="#66B6D1"/>
      <path d="M833.312,83.664 C833.195,93.574 825.4,102.716 812.02,110.397 C801.3,161.38 769.586,249.683 674.559,248.469 C657.215,248.263 642.103,245.098 628.871,239.812 C645.572,249.939 665.938,256.307 690.863,256.628 C821.65,258.296 832.502,90.436 833.774,83.671 z" fill="#88CCCD"/>
      <path d="M726.854,243.711 L713.937,243.711 L720.016,269.554 L732.916,269.554 z" fill="#88CCCD"/>
    </g>
    <g clip-path="url(#Clip_2)">
      <path d="M697.617,152.708 C696.015,152.708 694.397,152.693 692.778,152.666 C617.638,151.691 561.774,128.45 562.023,108.308 C562.27,88.884 614.516,67.219 689.077,67.219 C690.664,67.219 692.282,67.236 693.867,67.263 C769.04,68.22 824.935,91.484 824.705,111.645 C824.456,131.07 772.212,152.708 697.617,152.708" fill="#A26B3E"/>
    </g>
    <g>
      <path d="M608.221,83.594 C610.831,87.532 600.872,89.094 599.336,90.654 C594.612,95.42 600.244,97.971 599.632,102.497 C599.632,102.529 586.121,99.59 592.068,91.116 C593.736,88.77 605.579,79.497 608.221,83.594" fill="#FFFFFE"/>
      <path d="M605.315,107 C603.25,105.496 603.448,103.431 606.321,104.093 C607.859,104.429 610.054,104.903 611.311,105.943 C612.598,107.007 612.93,108.328 611.541,108.938 C609.873,109.7 606.636,107.947 605.315,107" fill="#FFFFFE"/>
      <path d="M649.12,79.449 C649.169,76.575 647.535,72.32 646.131,70.05 C651.349,67.976 658.304,67.628 664.035,67.886 C664.118,70.718 664.862,73.502 664.498,76.251 C659.378,77.044 654.423,78.399 649.55,79.449" fill="#0D5D35"/>
      <path d="M691.884,112.864 C693.883,109.693 695.321,104.065 695.651,100.806 C701.464,101.406 707.543,104.875 712.267,108.394 C710.402,111.541 709.179,115.051 707.031,117.874 C702.175,115.887 697.072,114.664 692.216,113.094" fill="#0D5D35"/>
      <path d="M655.445,109.874 C657.444,106.703 658.897,101.087 659.229,97.823 C665.042,98.426 671.104,101.896 675.828,105.399 C673.963,108.56 672.74,112.061 670.592,114.896 C665.752,112.903 660.649,111.68 655.792,110.106" fill="#0D5D35"/>
      <path d="M610.188,102.342 C611.822,98.02 612.566,91.026 612.483,87.112 C618.479,85.89 625.135,87.896 630.406,90.399 C628.936,94.7 628.142,99.154 626.309,103.157 C621.121,102.464 615.721,102.689 610.584,102.513" fill="#0D5D35"/>
      <path d="M778.305,103.24 C779.941,98.913 780.683,91.909 780.585,88.004 C786.596,86.772 793.271,88.797 798.539,91.282 C797.053,95.576 796.259,100.037 794.426,104.05 C789.223,103.365 783.839,103.604 778.685,103.399" fill="#0D5D35"/>
      <path d="M703.216,91.744 C707.196,85.445 710.054,74.278 710.714,67.804 C722.277,68.999 734.335,75.887 743.683,82.867 C739.984,89.134 737.606,96.066 733.327,101.722 C723.68,97.757 713.539,95.306 703.91,92.218" fill="#FFFFFE"/>
      <path d="M630.472,107.535 C631.859,100.228 630.406,88.781 628.671,82.521 C639.854,79.405 653.597,81.365 664.862,84.42 C663.722,91.595 664.035,98.939 662.135,105.768 C651.713,105.619 641.39,107.056 631.281,107.718" fill="#FFFFFE"/>
      <path d="M750.158,113.35 C751.513,106.041 750.092,94.596 748.341,88.342 C759.525,85.22 773.268,87.179 784.533,90.242 C783.376,97.427 783.723,104.761 781.806,111.583 C771.368,111.444 761.044,112.887 750.968,113.541" fill="#FFFFFE"/>
      <path d="M817.964,438.518 C817.964,449.463 805.212,458.348 778.784,458.348 C751.877,458.348 739.604,449.463 739.604,438.518 C739.604,427.566 757.146,418.69 778.784,418.69 C800.422,418.69 817.964,427.566 817.964,438.518" fill="#FFFFFE"/>
      <path d="M817.964,438.518 L816.301,438.518 C816.298,440.93 815.613,443.183 814.182,445.301 C812.041,448.467 808.13,451.332 802.246,453.391 C796.37,455.449 788.555,456.687 778.784,456.685 C765.511,456.692 755.968,454.475 749.915,451.085 C746.882,449.394 744.726,447.425 743.329,445.316 C741.933,443.201 741.27,440.944 741.267,438.518 C741.27,436.235 742.167,434.019 743.959,431.866 C746.639,428.643 751.359,425.712 757.416,423.649 C763.47,421.579 770.841,420.351 778.784,420.352 C789.374,420.347 798.951,422.539 805.738,425.98 C809.133,427.696 811.821,429.721 813.61,431.866 C815.403,434.019 816.298,436.235 816.301,438.518 L817.964,438.518 L819.627,438.518 C819.63,435.325 818.333,432.324 816.161,429.733 C812.893,425.837 807.677,422.715 801.227,420.503 C794.776,418.297 787.07,417.029 778.784,417.027 C767.736,417.032 757.722,419.278 750.329,423.013 C746.634,424.885 743.584,427.133 741.407,429.733 C739.235,432.324 737.938,435.325 737.941,438.518 C737.938,441.564 738.809,444.521 740.556,447.151 C743.18,451.106 747.682,454.307 754.013,456.528 C760.351,458.749 768.556,460.009 778.784,460.011 C792.183,460.006 802.229,457.776 809.089,453.993 C812.516,452.097 815.151,449.798 816.936,447.166 C818.722,444.539 819.63,441.578 819.627,438.518 z" fill="#8A8B8A"/>
      <path d="M779.296,314.628 L779.296,313.659 L646.329,313.659 C646.361,313.659 653.893,362.221 655.281,367.028 C660.401,384.752 668.858,398.297 682.205,411.123 C707.279,435.239 745.055,443.367 779.296,443.696 C779.296,443.696 846.142,446.191 876.85,410.651 C886.281,399.75 898.257,383.976 903.096,366.196 C904.418,361.347 911.223,312.685 911.257,312.678 C911.008,312.685 796.259,314.369 779.296,314.628" fill="#FFFFFE"/>
      <path d="M889.816,312.982 C887.834,326.774 883.705,355.531 882.714,359.198 C877.873,376.982 865.898,392.756 856.467,403.657 C825.76,439.194 758.912,436.694 758.912,436.694 C743.668,436.552 727.743,434.85 712.53,430.885 C733.326,439.938 757.047,443.471 779.296,443.696 C779.296,443.696 846.142,446.191 876.85,410.651 C886.281,399.75 898.256,383.976 903.095,366.196 C904.418,361.346 911.223,312.684 911.257,312.677 C911.191,312.677 902.585,312.809 889.816,312.982" fill="#D4EDF4"/>
      <path d="M911.587,306.484 C911.587,332.126 852.124,352.932 778.801,352.932 C705.446,352.932 645.982,332.126 645.982,306.484 C645.982,280.822 705.446,257.533 778.801,257.533 C852.124,257.533 911.587,280.822 911.587,306.484" fill="#FFFFFE"/>
      <path d="M645.146,314.391 L646.327,313.66 L645.018,314.124 C645.038,314.171 645.046,314.222 645.146,314.391 L646.327,313.66 L645.018,314.124 L646.295,313.672 L644.97,313.956 L645.018,314.124 L646.295,313.672 L644.97,313.956 L644.97,313.958 C645.131,314.907 647.032,327.084 649.055,339.573 C650.066,345.821 651.112,352.155 651.988,357.228 C652.426,359.765 652.823,361.986 653.155,363.728 C653.488,365.477 653.743,366.712 653.945,367.414 C659.117,385.351 667.75,399.172 681.241,412.126 C706.734,436.616 744.847,444.745 779.282,445.087 L779.296,443.696 L779.245,445.087 C779.26,445.087 780.289,445.124 782.141,445.124 C788.74,445.122 805.775,444.644 824.612,440.232 C843.441,435.816 864.125,427.484 877.902,411.56 C887.38,400.591 899.491,384.697 904.437,366.561 C904.631,365.839 904.877,364.558 905.195,362.742 C906.294,356.424 908.144,343.974 909.726,333.081 C910.516,327.638 911.24,322.586 911.766,318.895 C912.029,317.05 912.244,315.546 912.393,314.503 C912.469,313.982 912.527,313.576 912.567,313.302 L912.613,312.994 L912.622,312.93 L912.129,312.849 L912.62,312.942 L912.622,312.93 L912.129,312.849 L912.62,312.942 L911.36,312.705 L912.608,312.997 L912.62,312.942 L911.36,312.705 L912.608,312.997 L911.272,312.684 L912.578,313.109 L912.608,312.997 L911.272,312.684 L912.578,313.109 L911.257,312.679 L912.5,313.297 L912.578,313.109 L911.257,312.679 L912.5,313.297 C912.841,312.61 912.562,311.775 911.874,311.433 C911.187,311.091 910.352,311.372 910.01,312.059 L911.255,312.678 L910.039,312.006 L909.934,312.248 L909.89,312.414 L909.871,312.529 C909.712,313.556 908.002,325.705 906.165,338.23 C905.247,344.488 904.298,350.833 903.498,355.904 C903.099,358.437 902.737,360.655 902.436,362.378 C902.136,364.092 901.888,365.35 901.754,365.83 C897.021,383.254 885.18,398.908 875.798,409.741 C862.645,424.983 842.507,433.193 823.978,437.526 C805.458,441.865 788.604,442.345 782.141,442.343 C781.234,442.343 780.532,442.335 780.057,442.326 C779.583,442.316 779.348,442.308 779.346,442.308 L779.309,442.306 C745.261,441.988 707.823,433.864 683.167,410.122 C669.966,397.421 661.683,384.152 656.616,366.642 C656.473,366.159 656.198,364.863 655.865,363.095 C654.686,356.875 652.649,344.446 650.907,333.594 C650.036,328.166 649.238,323.127 648.656,319.447 C648.365,317.606 648.128,316.105 647.962,315.064 C647.879,314.542 647.815,314.136 647.771,313.858 L647.719,313.537 L647.702,313.441 L647.692,313.388 L647.676,313.319 L647.639,313.197 L647.544,312.987 C647.172,312.314 646.327,312.07 645.655,312.443 C644.984,312.815 644.74,313.66 645.111,314.332 z" fill="#8A8B8A"/>
      <path d="M911.587,308.82 L909.924,308.82 C909.923,311.865 909.089,314.845 907.438,317.801 C904.556,322.969 899.111,328.016 891.501,332.593 C880.095,339.467 863.88,345.284 844.548,349.35 C825.211,353.419 802.751,355.753 778.801,355.752 C742.29,355.757 709.238,350.326 685.455,341.62 C673.564,337.273 663.999,332.099 657.506,326.477 C654.258,323.667 651.78,320.753 650.131,317.801 C648.48,314.845 647.647,311.865 647.645,308.82 C647.645,305.777 648.482,302.748 650.138,299.717 C653.03,294.414 658.487,289.151 666.102,284.318 C677.517,277.06 693.729,270.775 713.06,266.335 C732.395,261.892 754.852,259.277 778.801,259.278 C815.274,259.273 848.304,265.354 872.081,274.706 C883.968,279.376 893.534,284.871 900.036,290.737 C903.289,293.668 905.773,296.687 907.429,299.717 C909.087,302.748 909.923,305.777 909.924,308.82 L911.587,308.82 L913.25,308.82 C913.251,305.156 912.228,301.555 910.347,298.12 C907.047,292.104 901.166,286.546 893.252,281.512 C881.373,273.968 864.862,267.604 845.261,263.094 C825.665,258.588 802.981,255.953 778.801,255.953 C741.936,255.956 708.565,262.068 684.274,271.611 C672.128,276.389 662.245,282.018 655.305,288.268 C651.838,291.393 649.103,294.681 647.222,298.12 C645.339,301.555 644.318,305.156 644.318,308.82 C644.318,312.484 645.341,316.054 647.229,319.424 C650.539,325.328 656.433,330.666 664.353,335.441 C676.238,342.592 692.748,348.475 712.347,352.602 C731.942,356.726 754.622,359.077 778.801,359.077 C815.629,359.074 848.978,353.624 873.261,344.742 C885.404,340.294 895.288,334.996 902.237,328.992 C905.709,325.986 908.451,322.798 910.339,319.424 C912.226,316.054 913.251,312.484 913.25,308.82 z" fill="#8A8B8A"/>
    </g>
    <g clip-path="url(#Clip_3)">
      <path d="M830.27,366.318 C822.885,357.861 774.638,310.564 795.946,308.351 L868.376,282.616 L882.746,304.701 z" fill="#D47F2B"/>
      <path d="M882.746,304.701 L852.057,375.717 L830.27,366.318 z" fill="#E87D2D"/>
      <path d="M882.746,304.701 L852.057,375.717 L847.118,373.586 z" fill="#3D5B3A"/>
    </g>
    <g clip-path="url(#Clip_4)">
      <path d="M696.856,269.442 L696.856,347.504 L720.36,348.506 z" fill="#E87D2D"/>
      <path d="M696.856,269.442 L696.856,347.504 L702.174,347.729 z" fill="#3D5B3A"/>
    </g>
    <g clip-path="url(#Clip_5)">
      <path d="M782.831,255.98 L839.933,305.599 L825.71,325.404 C826.174,324.76 818.757,314.155 818.244,313.297 C816.576,310.604 815.239,307.658 813.52,304.987 C812.116,302.802 810.629,302.173 808.73,300.703 C806.386,298.91 806.137,296.474 805.08,293.773 C803.94,290.865 802.553,287.777 800.868,285.167 C797.797,280.402 794.889,275.48 791.882,270.641 C789.669,267.04 787.438,263.439 785.209,259.828 C784.548,258.739 783.805,256.822 782.831,255.98" fill="#E87D2D"/>
      <path d="M782.831,255.98 L839.933,305.599 L836.711,310.075 C834.086,307.433 831.889,304.245 829.081,301.892 C824.538,298.034 820.409,293.93 816.362,289.487 C811.654,284.301 806.269,279.511 801.315,274.513 C795.136,268.336 788.991,262.157 782.831,255.98" fill="#3D5B3A"/>
      <path d="M701.497,363.181 C701.497,363.181 732.401,342.759 768.758,343.872 L763.323,301.157 C763.323,301.157 699.812,296.707 683.51,337.554 z" fill="#EB8D2F"/>
      <path d="M764.579,311.049 L763.324,301.156 C763.324,301.156 699.813,296.707 683.509,337.553 L689.357,345.885 C688.119,344.135 696.873,335.431 698.029,334.375 C701.383,331.376 705.462,328.073 709.508,326.174 C711.21,325.363 713.292,325.051 714.992,324.049 C716.942,322.91 718.097,322.051 720.162,321.401 C721.947,320.845 723.895,320.35 725.614,319.253 C729.164,316.973 733.212,317.634 737.126,315.849 C739.323,314.866 740.975,313.967 743.585,313.826 C744.691,313.759 746.129,314.331 747.152,314.105 C748.673,313.776 749.515,313.159 751.117,312.966 C753.478,312.712 755.824,312.158 758.202,311.82 C760.268,311.523 762.482,311.027 764.579,311.049" fill="#3D5B3A"/>
    </g>
    <g clip-path="url(#Clip_6)">
      <path d="M848.356,338.909 L853.89,330.822 C853.89,330.822 810.795,281.369 772.291,299.108 L771.102,309.416 C778.834,306.238 787.24,305.625 795.384,306.987 C799.281,307.641 803.114,308.731 806.83,310.119 C808.483,310.72 810.382,311.298 811.935,312.075 C813.371,312.785 813.751,313.627 815.089,314.635 C816.857,315.973 818.707,315.982 820.49,317.585 C821.317,318.302 821.415,319.145 822.506,319.574 C823.595,320.002 825.067,319.194 826.124,319.6 C827.594,320.161 829.047,322.299 830.236,323.29 C833.094,325.745 836.298,327.485 838.71,330.469 C839.354,331.262 848.951,338.056 848.356,338.909" fill="#3D5B3A"/>
    </g>
    <g clip-path="url(#Clip_7)">
      <path d="M816.543,300.29 L816.543,378.369 L793.039,379.367 z" fill="#E87D2D"/>
      <path d="M816.543,300.29 L816.543,378.369 L811.242,378.584 C811.44,378.574 812.018,367.077 812.067,366.428 C812.265,363.412 811.672,360.679 811.738,357.822 C811.804,354.508 813.075,351.369 813.075,347.927 C813.059,337.753 814.726,327.255 815.42,317.106 C815.8,311.496 816.181,305.897 816.543,300.29" fill="#3D5B3A"/>
    </g>
    <g>
      <path d="M909.927,308.82 C909.925,311.865 909.091,314.845 907.441,317.801 C904.558,322.969 899.114,328.016 891.504,332.593 C880.097,339.467 863.883,345.284 844.55,349.35 C825.214,353.419 802.754,355.753 778.803,355.752 C742.292,355.757 709.24,350.326 685.457,341.62 C673.567,337.273 664.002,332.099 657.509,326.477 C654.261,323.667 651.783,320.753 650.134,317.801 C648.483,314.845 647.649,311.865 647.648,308.82 C647.648,307.902 646.902,307.157 645.985,307.157 C645.066,307.157 644.322,307.902 644.322,308.82 C644.32,312.484 645.344,316.054 647.231,319.424 C650.542,325.328 656.436,330.666 664.355,335.441 C676.241,342.592 692.751,348.475 712.349,352.602 C731.944,356.726 754.625,359.077 778.803,359.077 C815.632,359.074 848.98,353.624 873.264,344.742 C885.406,340.294 895.291,334.996 902.24,328.992 C905.712,325.986 908.454,322.798 910.341,319.424 C912.229,316.054 913.254,312.484 913.252,308.82 C913.252,307.902 912.508,307.157 911.59,307.157 C910.671,307.157 909.927,307.902 909.927,308.82" fill="#8A8B8A"/>
      <path d="M259.271,144.215 C259.271,143.379 259.171,139.844 259.039,139.144 C257.867,133.072 236.757,116.976 235.865,116.961 L235.865,103.092 L192.638,103.092 L149.395,103.092 L149.395,116.961 C148.503,116.976 127.393,133.072 126.204,139.144 C126.072,139.844 126.006,143.379 125.989,144.215 C125.939,146.98 125.989,146.989 125.989,149.748 L125.989,180.098 L125.989,266.056 L125.989,328.757 L125.989,332.847 C125.989,344.063 155.82,353.147 192.638,353.147 C229.423,353.147 259.271,344.063 259.271,332.847 L259.271,328.757 L259.271,266.056 L259.271,180.098 L259.271,149.748 C259.271,146.989 259.32,146.98 259.271,144.215" fill="#FFFFFE"/>
      <path d="M259.271,144.215 C259.271,143.379 259.171,139.844 259.039,139.144 C257.867,133.072 236.757,116.976 235.865,116.961 L235.865,103.092 L192.638,103.092 L149.395,103.092 L149.395,116.961 C148.503,116.976 127.393,133.072 126.204,139.144 C126.072,139.844 126.006,143.379 125.989,144.215 C125.939,146.98 125.989,146.989 125.989,149.748 L125.989,180.098 L125.989,266.056 L125.989,328.757 L125.989,332.847 C125.989,344.063 155.82,353.147 192.638,353.147 C229.423,353.147 259.271,344.063 259.271,332.847 L259.271,328.757 L259.271,266.056 L259.271,180.098 L259.271,149.748 C259.271,146.989 259.32,146.98 259.271,144.215" fill="#FFFFFE"/>
      <path d="M259.271,144.215 C259.271,143.379 259.171,139.844 259.022,139.144 C257.833,133.072 236.046,116.976 235.138,116.961 L235.138,103.092 L223.956,103.092 L223.956,113.856 C224.864,113.871 242.555,129.977 243.761,136.039 C243.91,136.749 243.992,140.284 243.992,141.116 C244.041,143.883 243.992,143.883 243.992,146.642 L243.992,177.001 L243.992,262.961 L243.992,325.662 L243.992,329.748 C243.992,340.964 217.332,350.042 179.39,350.042 C163.997,350.042 149.808,348.555 138.361,346.035 C150.964,350.388 169.661,353.147 190.574,353.147 C228.514,353.147 259.271,344.063 259.271,332.847 L259.271,328.757 L259.271,266.056 L259.271,180.098 L259.271,149.748 C259.271,146.989 259.32,146.98 259.271,144.215" fill="#DCF1F6"/>
    </g>
    <g clip-path="url(#Clip_8)">
      <path d="M264.74,229.396 C264.74,239.555 232.564,248.392 192.872,248.392 C153.18,248.392 121.003,239.555 121.003,229.396 L121.003,186.109 C121.003,195.062 156.219,201.653 195.894,201.653 C235.587,201.653 264.74,195.062 264.74,186.109 z" fill="#295385"/>
    </g>
    <g>
      <path d="M259.271,144.215 L261.23,144.215 C261.228,143.738 261.204,142.656 261.162,141.553 C261.14,141.005 261.115,140.458 261.086,139.99 C261.071,139.756 261.055,139.542 261.037,139.347 C261.018,139.149 261.001,138.987 260.964,138.781 L260.962,138.772 C260.715,137.563 260.13,136.495 259.366,135.35 C258.018,133.366 256.03,131.203 253.76,128.987 C250.359,125.672 246.337,122.289 243.067,119.71 C241.432,118.421 239.989,117.335 238.895,116.555 C238.346,116.166 237.89,115.853 237.514,115.616 C237.323,115.498 237.157,115.398 236.978,115.304 L236.657,115.157 C236.508,115.111 236.373,115.026 235.901,115.003 L235.865,116.961 L237.824,116.961 L237.824,103.092 C237.824,102.576 237.614,102.072 237.25,101.706 C236.885,101.343 236.381,101.133 235.865,101.133 L192.638,101.133 L149.395,101.133 C148.879,101.133 148.374,101.343 148.01,101.706 C147.645,102.072 147.436,102.576 147.436,103.092 L147.436,116.961 L149.395,116.961 L149.358,115.003 C148.993,115.016 148.843,115.079 148.71,115.118 C148.469,115.202 148.349,115.27 148.211,115.341 C147.724,115.61 147.145,116.002 146.334,116.577 C143.544,118.568 138.454,122.563 133.858,126.76 C131.561,128.86 129.395,131.003 127.692,133.004 C126.841,134.006 126.104,134.971 125.518,135.91 C124.937,136.854 124.487,137.757 124.282,138.767 L124.279,138.781 C124.24,138.994 124.225,139.158 124.207,139.357 C124.148,140.03 124.112,141.018 124.083,141.974 C124.055,142.921 124.038,143.811 124.031,144.176 C124.014,145.108 124.008,145.737 124.008,146.265 C124.009,147.327 124.031,147.926 124.031,149.748 L124.031,180.098 L124.031,266.056 L124.031,328.757 L124.031,332.847 C124.028,334.69 124.657,336.46 125.717,338.031 C127.584,340.786 130.691,343.075 134.758,345.126 C140.866,348.183 149.221,350.651 159.122,352.388 C169.019,354.12 180.451,355.106 192.638,355.106 C211.196,355.102 228,352.824 240.319,349.076 C246.484,347.195 251.529,344.959 255.176,342.339 C256.998,341.025 258.479,339.609 259.542,338.031 C260.602,336.461 261.231,334.69 261.23,332.847 L261.23,328.757 L261.23,266.056 L261.23,180.098 L261.23,149.748 C261.23,147.926 261.25,147.327 261.25,146.265 C261.25,145.736 261.245,145.108 261.228,144.179 L259.271,144.215 L261.23,144.215 L259.271,144.215 L257.312,144.249 C257.328,145.162 257.334,145.766 257.334,146.265 C257.334,147.254 257.312,147.89 257.312,149.748 L257.312,180.098 L257.312,266.056 L257.312,328.757 L257.312,332.847 C257.309,333.808 257.006,334.773 256.291,335.847 C255.051,337.718 252.468,339.768 248.744,341.624 C243.162,344.426 235.096,346.845 225.46,348.53 C215.822,350.218 204.603,351.189 192.638,351.189 C174.394,351.192 157.877,348.927 146.077,345.329 C140.181,343.538 135.468,341.399 132.37,339.161 C130.819,338.046 129.682,336.913 128.969,335.847 C128.253,334.775 127.95,333.808 127.947,332.847 L127.947,328.757 L127.947,266.056 L127.947,180.098 L127.947,149.748 C127.947,147.89 127.925,147.254 127.925,146.265 C127.925,145.766 127.93,145.164 127.947,144.251 C127.955,143.834 127.976,142.75 128.01,141.691 C128.028,141.164 128.048,140.641 128.072,140.225 C128.084,140.017 128.096,139.834 128.108,139.699 L128.124,139.54 L128.129,139.501 L128.13,139.498 L127.732,139.432 L128.128,139.506 L128.13,139.498 L127.732,139.432 L128.128,139.506 L128.126,139.52 C128.174,139.208 128.506,138.444 129.126,137.547 C130.201,135.956 132.062,133.897 134.228,131.792 C137.48,128.623 141.43,125.297 144.617,122.785 C146.21,121.53 147.615,120.474 148.636,119.747 C149.145,119.383 149.562,119.102 149.832,118.932 L150.089,118.779 L150.093,118.778 L149.682,117.951 L149.998,118.817 L150.093,118.778 L149.682,117.951 L149.998,118.817 L149.398,117.171 L149.431,118.918 C149.816,118.9 149.916,118.839 149.998,118.817 L149.398,117.171 L149.431,118.918 C150.5,118.898 151.353,118.03 151.353,116.961 L151.353,105.05 L192.638,105.05 L233.907,105.05 L233.907,116.961 C233.907,118.03 234.759,118.898 235.83,118.918 L235.862,117.149 L235.293,118.827 C235.38,118.85 235.491,118.905 235.83,118.918 L235.862,117.149 L235.293,118.827 L235.662,117.736 L235.173,118.779 L235.293,118.827 L235.662,117.736 L235.173,118.779 L235.263,118.59 L235.167,118.778 L235.173,118.779 L235.263,118.59 L235.167,118.778 C235.189,118.788 235.373,118.893 235.61,119.048 C236.525,119.645 238.353,120.983 240.522,122.69 C243.784,125.258 247.874,128.7 251.196,131.957 C252.857,133.584 254.325,135.168 255.384,136.533 C255.912,137.214 256.338,137.84 256.631,138.364 C256.928,138.885 257.081,139.31 257.116,139.515 L257.114,139.506 L257.141,139.501 L257.114,139.506 L257.141,139.501 L257.114,139.506 C257.128,139.582 257.16,139.941 257.184,140.357 C257.26,141.624 257.314,143.682 257.312,144.215 L257.312,144.249 L259.271,144.215" fill="#8A8B8A"/>
      <path d="M239.654,91.622 L230.235,91.622 L239.63,90.846 C239.63,91.11 239.639,91.368 239.654,91.622 M147.436,104.971 C144.036,103.57 135.457,104.79 137.75,103.119 C146.934,96.468 145.612,88.672 145.612,88.672 L168.691,91.622 L165.335,91.622 L161.939,101.133 L149.395,101.133 C148.879,101.133 148.374,101.343 148.01,101.706 C147.645,102.072 147.436,102.576 147.436,103.091 L147.436,104.971" fill="#8CC9DE"/>
      <path d="M237.823,107.677 L237.823,103.092 C237.823,102.576 237.613,102.072 237.25,101.706 C236.884,101.343 236.38,101.133 235.864,101.133 L192.637,101.133 L165.334,101.133 L165.334,91.622 L168.69,91.622 L192.852,94.711 L230.234,91.622 L239.653,91.622 C240.123,99.844 247.971,103.465 247.971,103.465 C245.644,107.871 241.706,107.645 237.823,107.677" fill="#88C1D6"/>
      <path d="M165.334,101.133 L161.938,101.133 L165.334,91.622 z" fill="#88C1D6"/>
      <path d="M195.878,120.009 C191.895,120.009 189.939,115.579 186.311,114.417 C185.582,114.182 184.929,114.081 184.331,114.081 C181.065,114.081 179.468,117.13 176.55,118.387 C175.62,118.793 174.776,118.965 173.993,118.965 C170.847,118.965 168.672,116.183 165.896,114.498 C164.041,113.387 162.76,112.919 160.757,112.919 C160.531,112.919 160.296,112.925 160.049,112.937 C157.929,113.039 156.186,114.37 154.209,114.37 C154.075,114.37 153.941,114.363 153.805,114.351 C152.676,114.235 151.904,113.83 151.353,113.247 L151.353,105.05 L192.637,105.05 L223.956,105.05 L223.956,113.856 C224.123,113.857 224.857,114.405 225.951,115.332 C225.845,115.415 225.737,115.496 225.623,115.572 C224.289,116.472 222.734,116.8 221.134,116.8 C219.603,116.8 218.032,116.499 216.573,116.109 C213.75,115.366 211.407,113.629 208.655,113.629 C207.831,113.629 206.97,113.785 206.05,114.169 C202.532,115.639 200.352,119.437 196.685,119.95 C196.406,119.99 196.138,120.009 195.878,120.009" fill="#8CC8DE"/>
      <path d="M225.951,115.332 C224.857,114.405 224.123,113.857 223.955,113.855 L223.955,105.05 L233.906,105.05 L233.906,108.001 C232.749,108.252 231.656,108.697 230.678,109.493 C228.811,111.015 227.942,113.757 225.951,115.332" fill="#89C7DD"/>
      <path d="M151.353,113.246 C149.588,111.379 150.093,107.669 148.47,105.668 C148.238,105.383 147.882,105.154 147.436,104.97 L147.436,103.091 C147.436,102.575 147.645,102.071 148.01,101.705 C148.374,101.342 148.879,101.132 149.395,101.132 L161.938,101.132 L165.335,101.132 L192.638,101.132 L235.865,101.132 C236.381,101.132 236.885,101.342 237.25,101.705 C237.614,102.071 237.824,102.575 237.824,103.091 L237.824,107.676 C236.489,107.688 235.16,107.73 233.906,108.001 L233.906,105.049 L223.956,105.049 L192.638,105.049 L151.353,105.049 L151.353,113.246" fill="#87C0D4"/>
      <path d="M239.632,92.894 C239.632,100.35 218.587,106.405 192.638,106.405 C166.673,106.405 145.612,100.35 145.612,92.894 L145.612,77.335 L239.632,77.335 z" fill="#69BDD9"/>
      <path d="M239.632,77.334 C239.632,84.8 218.587,90.845 192.638,90.845 C166.673,90.845 145.612,84.8 145.612,77.334 C145.612,69.868 166.673,63.821 192.638,63.821 C218.587,63.821 239.632,69.868 239.632,77.334" fill="#89D0E8"/>
      <path d="M228.299,76.565 L227.32,76.565 C227.318,76.964 227.176,77.382 226.799,77.877 C226.144,78.742 224.747,79.714 222.743,80.586 C216.72,83.234 205.456,85.085 192.637,85.076 C182.849,85.078 173.993,84.016 167.655,82.328 C164.489,81.487 161.952,80.481 160.282,79.427 C159.446,78.903 158.834,78.37 158.46,77.879 C158.082,77.384 157.939,76.964 157.938,76.565 C157.939,76.164 158.082,75.746 158.46,75.249 C159.113,74.387 160.51,73.412 162.513,72.541 C168.533,69.891 179.796,68.037 192.637,68.045 C202.41,68.044 211.261,69.108 217.599,70.797 C220.765,71.64 223.304,72.646 224.974,73.7 C225.809,74.224 226.423,74.759 226.799,75.251 C227.176,75.746 227.318,76.166 227.32,76.565 L228.299,76.565 L229.278,76.565 C229.28,75.655 228.923,74.796 228.351,74.057 C227.342,72.758 225.694,71.702 223.528,70.747 C217.038,67.913 205.661,66.095 192.637,66.087 C182.704,66.088 173.722,67.156 167.151,68.906 C163.863,69.784 161.179,70.824 159.238,72.042 C158.269,72.654 157.481,73.311 156.908,74.057 C156.334,74.796 155.978,75.655 155.98,76.565 C155.978,77.473 156.336,78.332 156.908,79.072 C157.916,80.369 159.562,81.424 161.728,82.38 C168.215,85.211 179.593,87.026 192.637,87.035 C202.554,87.033 211.534,85.968 218.103,84.22 C221.391,83.343 224.077,82.302 226.017,81.084 C226.986,80.474 227.776,79.818 228.35,79.073 C228.923,78.334 229.28,77.475 229.278,76.565 z" fill="#4EC0E3"/>
      <path d="M171.577,215.164 L166.193,232.467 C165.283,235.415 163.583,235.63 162.195,235.63 C160.346,235.63 159.123,234.737 158.43,232.467 L153.028,215.164 L153.028,235.035 C153.028,236.06 152.301,237.447 150.6,237.447 C149.262,237.447 148.056,236.637 148.056,235.101 L148.056,213.06 C148.056,211.258 148.717,208.16 152.384,208.16 C155.869,208.16 156.811,211.084 157.141,212.141 L162.311,228.526 L167.514,212.141 C168.093,210.325 169.463,208.138 172.122,208.138 C176.55,208.138 176.55,212.29 176.55,213.06 L176.55,235.101 C176.55,235.953 176.003,237.447 174.121,237.447 C172.915,237.447 171.577,236.664 171.577,235.035 z" fill="#FFFFFE"/>
      <path d="M182.644,210.689 C182.644,209.483 183.486,208.16 185.088,208.16 C186.626,208.16 187.698,209.3 187.698,210.689 L187.698,234.92 C187.698,236.307 186.758,237.447 185.237,237.447 C183.75,237.447 182.644,236.307 182.644,234.92 z" fill="#FFFFFE"/>
      <path d="M193.811,210.689 C193.811,209.3 194.9,208.16 196.387,208.16 C198.055,208.16 198.848,209.73 198.848,210.689 L198.848,230.411 C198.848,231.551 198.997,231.906 199.922,231.906 L210.164,231.906 C211.98,231.906 212.674,233.146 212.674,234.286 C212.674,236.06 211.436,236.803 210.394,236.803 L198.023,236.803 C195.842,236.803 193.811,236.307 193.811,232.293 z" fill="#FFFFFE"/>
      <path d="M221.741,226.066 L221.741,235.102 C221.741,236.703 220.371,237.448 219.182,237.448 C217.463,237.448 216.687,236.203 216.687,235.178 L216.687,210.689 C216.687,209.228 217.859,208.161 219.28,208.161 C220.916,208.161 221.741,209.73 221.741,210.689 L221.741,219.459 L233.189,208.805 C233.667,208.375 234.263,208.161 234.839,208.161 C236.079,208.161 237.268,209.169 237.268,210.507 C237.268,211.713 236.69,212.218 236.392,212.506 L226.912,221.244 C227.854,221.408 228.911,221.601 230.545,223.969 L237.268,233.649 C237.517,233.989 237.664,234.467 237.664,234.963 C237.664,236.35 236.641,237.448 235.469,237.448 C234.295,237.448 233.42,236.911 232.991,236.284 L226.812,226.959 C225.425,224.86 224.087,224.804 223.096,224.772 z" fill="#FFFFFE"/>
      <path d="M643.506,359.331 C643.506,406.665 546.348,445.052 416.833,445.052 C287.317,445.052 194.075,406.665 194.075,359.331 C194.075,311.992 287.317,273.615 416.833,273.615 C546.348,273.615 643.506,311.992 643.506,359.331" fill="#8A8B8A"/>
    </g>
    <g>
      <path d="M643.506,341.84 L641.52,341.84 C641.517,354.357 635.44,366.158 624.016,377.003 C606.904,393.251 577.838,406.993 540.954,416.569 C504.071,426.155 459.38,431.627 410.968,431.627 C346.421,431.632 292.417,421.89 254.744,405.693 C235.905,397.599 221.166,387.896 211.212,377.098 C201.255,366.284 196.067,354.468 196.059,341.84 C196.062,336.25 197.427,330.902 200.096,325.739 C204.761,316.714 213.497,308.269 225.848,300.745 C244.362,289.452 270.929,280.269 303.448,273.955 C335.969,267.634 374.444,264.158 416.833,264.16 C481.421,264.155 537.921,272.237 578.089,286.135 C598.169,293.075 614.155,301.48 624.998,310.923 C630.421,315.642 634.558,320.611 637.329,325.767 C640.1,330.927 641.519,336.265 641.52,341.84 L643.506,341.84 L645.49,341.84 C645.493,335.582 643.875,329.555 640.827,323.887 C635.484,313.96 625.839,305.113 612.707,297.341 C592.997,285.694 565.347,276.44 531.955,270.056 C498.567,263.678 459.439,260.189 416.833,260.189 C351.906,260.194 296.043,268.279 256.222,282.387 C236.309,289.448 220.393,298.009 209.34,307.949 C203.816,312.92 199.506,318.245 196.571,323.914 C193.635,329.581 192.087,335.595 192.089,341.84 C192.082,355.596 197.82,368.446 208.295,379.789 C224.02,396.816 250.346,410.691 284.897,420.401 C319.451,430.1 362.256,435.595 410.968,435.597 C475.921,435.592 534.249,425.832 576.521,409.365 C597.657,401.124 614.792,391.212 626.749,379.883 C638.692,368.575 645.495,355.71 645.49,341.84 z" fill="#8A8B8A"/>
      <path d="M643.506,341.84 C643.506,394.614 540.468,433.611 410.968,433.611 C281.47,433.611 194.075,394.614 194.075,341.84 C194.075,294.509 287.317,262.174 416.833,262.174 C546.348,262.174 643.506,294.509 643.506,341.84" fill="#FFFFFE"/>
      <path d="M643.506,341.84 L641.52,341.84 C641.517,354.357 635.44,366.158 624.016,377.003 C606.904,393.251 577.838,406.993 540.954,416.569 C504.071,426.155 459.38,431.627 410.968,431.627 C346.421,431.632 292.417,421.89 254.744,405.693 C235.905,397.599 221.166,387.896 211.212,377.098 C201.255,366.284 196.067,354.468 196.059,341.84 C196.062,336.25 197.427,330.902 200.096,325.739 C204.761,316.714 213.497,308.269 225.848,300.745 C244.362,289.452 270.929,280.269 303.448,273.955 C335.969,267.634 374.444,264.158 416.833,264.16 C481.421,264.155 537.921,272.237 578.089,286.135 C598.169,293.075 614.155,301.48 624.998,310.923 C630.421,315.642 634.558,320.611 637.329,325.767 C640.1,330.927 641.519,336.265 641.52,341.84 L643.506,341.84 L645.49,341.84 C645.493,335.582 643.875,329.555 640.827,323.887 C635.484,313.96 625.839,305.113 612.707,297.341 C592.997,285.694 565.347,276.44 531.955,270.056 C498.567,263.678 459.439,260.189 416.833,260.189 C351.906,260.194 296.043,268.279 256.222,282.387 C236.309,289.448 220.393,298.009 209.34,307.949 C203.816,312.92 199.506,318.245 196.571,323.914 C193.635,329.581 192.087,335.595 192.089,341.84 C192.082,355.596 197.82,368.446 208.295,379.789 C224.02,396.816 250.346,410.691 284.897,420.401 C319.451,430.1 362.256,435.595 410.968,435.597 C475.921,435.592 534.249,425.832 576.521,409.365 C597.657,401.124 614.792,391.212 626.749,379.883 C638.692,368.575 645.495,355.71 645.49,341.84 z" fill="#8A8B8A"/>
      <path d="M411.911,406.334 L411.911,403.437 C359.371,403.443 316.906,395.157 287.807,383.18 C273.259,377.201 262.067,370.29 254.652,363.186 C250.941,359.637 248.177,356.048 246.362,352.535 C244.547,349.019 243.669,345.599 243.668,342.263 C243.668,340.176 244.388,337.818 246.066,335.205 C248.98,330.636 254.844,325.479 263.613,320.523 C276.758,313.066 296.357,305.987 322.036,300.817 C347.718,295.641 379.49,292.353 417.065,292.353 C474.678,292.348 519.34,300.135 549.401,310.505 C564.428,315.681 575.801,321.518 583.245,327.209 C586.967,330.049 589.697,332.849 591.435,335.421 C593.18,338.002 593.914,340.294 593.912,342.263 C593.914,344.964 593.024,347.963 591.079,351.211 C587.693,356.889 581.056,363.166 571.4,369.202 C556.921,378.278 535.721,386.871 508.819,393.153 C481.914,399.441 449.296,403.438 411.911,403.437 L411.911,406.334 L411.911,409.231 C469.512,409.228 516.055,399.868 548.393,387.028 C564.565,380.599 577.191,373.314 585.927,365.755 C590.294,361.971 593.696,358.112 596.049,354.189 C598.398,350.274 599.707,346.251 599.707,342.263 C599.705,338.835 598.44,335.43 596.235,332.172 C592.351,326.469 585.57,320.972 576.019,315.708 C561.688,307.838 541.049,300.583 514.428,295.255 C487.81,289.934 455.218,286.558 417.065,286.558 C359.288,286.561 314.935,294.247 284.821,304.825 C269.759,310.123 258.251,316.129 250.338,322.404 C246.384,325.549 243.319,328.764 241.19,332.072 C239.067,335.372 237.873,338.816 237.873,342.263 C237.871,346.632 239.04,350.994 241.215,355.197 C245.034,362.558 251.869,369.492 261.329,375.866 C275.529,385.415 295.717,393.714 321.095,399.677 C346.47,405.634 377.029,409.231 411.911,409.231 z" fill="#A7A8A7"/>
      <path d="M469.921,281.517 C482.424,281.945 495.143,281.872 507.614,282.797 C517.343,283.525 566.98,283.673 562.734,294.45 C542.88,294.509 522.927,293.343 503.369,293.815 C492.5,294.069 481.582,294.02 470.714,293.452 C466.618,293.227 462.338,292.797 458.375,291.718 C455.914,291.031 455.831,290.561 455.666,288.058 C455.219,280.36 464.552,281.317 469.921,281.517" fill="#075532"/>
      <path d="M473.076,307.658 C469.013,307.541 453.652,307.36 457.583,299.538 C459.863,294.979 467.79,295.698 472.036,295.739 C484.524,295.881 497.241,295.5 509.712,296.145 C517.295,296.53 524.876,296.408 532.458,296.772 C535.579,296.921 541.426,295.881 542.881,299.34 C543.672,301.199 543.838,304.691 542.104,306.088 C539.89,307.873 534.341,306.723 531.631,306.733 C522.993,306.75 514.37,306.848 505.747,307.261 C494.88,307.773 483.977,307.978 473.076,307.658" fill="#075532"/>
      <path d="M488.735,317.932 C484.672,317.922 469.294,318.186 473.01,310.234 C475.173,305.632 483.086,306.121 487.331,306.045 C499.834,305.832 512.537,305.098 525.024,305.395 C532.605,305.566 540.188,305.246 547.786,305.378 C550.923,305.444 556.721,304.245 558.274,307.648 C559.1,309.492 559.38,312.983 557.681,314.421 C555.516,316.264 549.934,315.273 547.224,315.361 C538.586,315.627 529.98,315.956 521.357,316.611 C510.505,317.426 499.619,317.939 488.735,317.932" fill="#075532"/>
      <path d="M481.203,282.319 C477.238,281.483 462.124,278.61 467.36,271.589 C470.4,267.526 478.098,269.608 482.243,270.417 C494.533,272.739 507.119,274.613 519.277,277.436 C526.677,279.154 534.158,280.377 541.543,282.045 C544.614,282.755 550.544,282.772 551.387,286.416 C551.833,288.381 551.353,291.857 549.421,292.924 C546.926,294.294 541.641,292.17 538.999,291.708 C530.476,290.221 521.968,288.794 513.413,287.677 C502.643,286.267 491.857,284.55 481.203,282.319" fill="#075532"/>
      <path d="M491.23,294.013 C487.199,294.401 471.904,296.134 474.844,287.875 C476.545,283.086 484.49,282.805 488.701,282.342 C501.14,280.922 513.711,278.966 526.165,278.059 C533.729,277.501 541.245,276.44 548.794,275.852 C551.932,275.613 557.598,273.879 559.463,277.1 C560.488,278.841 561.082,282.309 559.529,283.913 C557.547,285.958 551.899,285.497 549.207,285.837 C540.65,286.935 532.095,288.091 523.587,289.57 C512.884,291.427 502.082,292.991 491.23,294.013" fill="#075532"/>
      <path d="M486.67,293.65 C482.673,292.99 467.461,290.694 472.432,283.483 C475.322,279.297 483.069,281.081 487.248,281.709 C499.619,283.559 512.273,284.929 524.546,287.275 C531.978,288.686 539.544,289.604 546.993,290.998 C550.081,291.576 555.996,291.355 556.97,294.963 C557.498,296.921 557.168,300.407 555.269,301.552 C552.84,303.015 547.471,301.108 544.795,300.759 C536.24,299.587 527.683,298.498 519.094,297.721 C508.259,296.756 497.424,295.458 486.67,293.65" fill="#075532"/>
      <path d="M604.095,333.019 L612.09,364.758 L599.966,379.714 L592.549,350.158 z" fill="#CCD5D7"/>
    </g>
    <g>
      <path d="M236.031,327.033 C242.274,322.101 248.6,315.758 255.538,312.157 C263.021,308.292 269.726,304.179 276.945,299.613 C281.752,296.574 286.888,295.749 292.372,294.806 C302.003,293.161 307.684,285.199 317.282,284.086 C329.735,282.633 342.321,284.02 354.777,284.02 C361.203,284.02 388.439,280.09 390.785,286.811 C392.553,291.857 386.011,302.428 383.913,306.897 C379.174,317.013 374.829,330.26 373.425,341.096 C374.399,335.744 377.636,328.163 379.916,323.735 C382.377,318.989 385.053,316.545 386.011,311.34 C386.97,305.946 391.347,303.204 394.172,298.497 C396.765,294.152 397.773,287.941 403.635,287.175 C410.954,286.207 417.643,290.346 423.54,294.054 C428.015,296.878 434.128,299.884 439.016,300.958 C444.353,302.124 446.45,303.066 450.629,306.865 C457.698,313.339 466.106,317.938 474.397,322.348 C479.187,324.902 484.358,325.717 489.743,326.213 C502.725,327.402 515.559,331.218 528.577,328.576 C541.741,325.883 555.648,330.641 568.235,334.829 C578.409,338.205 583.614,346.342 595.027,346.921 C595.274,348.264 595.638,349.701 596.084,351.215 C600.792,344.921 602.13,339.057 604.129,333.398 C594.383,330.732 578.409,320.431 568.235,317.045 C557.119,313.363 544.515,310.505 532.606,308.715 C509.168,305.236 486.323,307.086 465.791,294.426 C456.277,288.553 446.995,283.195 436.621,279.362 C432.163,277.701 428.149,275.14 423.87,273.126 C416.965,269.888 408.757,267.255 401.091,266.403 C384.641,264.562 368.173,265.873 351.621,264.975 C338.143,264.249 324.516,264.603 311.22,267.213 C280.876,273.141 233.387,288.288 226.913,338.107 C227.821,334.746 230.695,331.245 236.031,327.033" fill="#82633B"/>
      <path d="M226.632,340.281 L226.598,340.545 C226.153,345.061 228.3,348.638 232.067,351.48 C228.548,347.3 226.549,343.799 226.632,340.281" fill="#926F43"/>
      <path d="M284.857,341.866 L289.779,323.945 C289.779,323.945 308.626,299.209 314.357,296.641 C314.357,296.641 323.788,291.956 329.933,292.379 C329.933,292.379 320.089,295.937 314.357,302.693 C314.357,302.693 293.463,322.244 293.05,324.803 z" fill="#82633B"/>
      <path d="M256.398,358.208 L259.85,339.934 C259.85,339.934 276.632,313.61 282.131,310.556 C282.131,310.556 291.15,305.055 297.312,304.938 C297.312,304.938 287.797,309.35 282.627,316.577 C282.627,316.577 263.384,337.901 263.186,340.479 z" fill="#F2B28D"/>
      <path d="M326.449,357.822 L329.916,339.536 C329.916,339.536 346.699,313.214 352.216,310.168 C352.216,310.168 361.218,304.657 367.38,304.552 C367.38,304.552 357.882,308.962 352.712,316.188 C352.712,316.188 333.451,337.511 333.254,340.098 z" fill="#F2B28D"/>
      <path d="M307.321,332.094 L313.515,316.411 C313.515,316.411 334.079,295.781 339.977,293.971 C339.977,293.971 349.721,290.578 355.817,291.476 C355.817,291.476 345.742,293.849 339.548,299.416 C339.548,299.416 317.314,315.19 316.72,317.46 z" fill="#82633B"/>
      <path d="M212.609,385.01 C212.609,423.586 184.86,438.477 150.651,438.477 C116.426,438.477 88.693,423.586 88.693,385.01 C88.693,355.476 116.426,331.532 150.651,331.532 C184.86,331.532 212.609,355.476 212.609,385.01" fill="#EC952F"/>
      <path d="M177.178,336.736 C191.3,346.548 200.352,361.562 200.352,378.421 C200.352,416.978 172.618,431.888 138.394,431.888 C127.162,431.888 116.673,430.253 107.605,426.717 C118.738,434.884 133.917,438.478 150.65,438.478 C184.859,438.478 212.608,423.587 212.608,385.01 C212.608,363.677 198.089,345.324 177.178,336.736" fill="#E87F2D"/>
      <path d="M156.91,338.684 C156.91,341.057 154.102,342.979 150.65,342.979 C147.181,342.979 144.39,341.057 144.39,338.684 C144.39,336.306 147.181,334.389 150.65,334.389 C154.102,334.389 156.91,336.306 156.91,338.684" fill="#6DB74C"/>
      <path d="M120.572,355.996 C120.572,356.821 119.845,357.483 118.92,357.483 C118.028,357.483 117.285,356.821 117.285,355.996 C117.285,355.179 118.028,354.509 118.92,354.509 C119.845,354.509 120.572,355.179 120.572,355.996" fill="#E05A2B"/>
      <path d="M106.003,372.935 C106.003,373.762 105.276,374.422 104.368,374.422 C103.443,374.422 102.732,373.762 102.732,372.935 C102.732,372.116 103.443,371.448 104.368,371.448 C105.276,371.448 106.003,372.116 106.003,372.935" fill="#E05A2B"/>
      <path d="M133.257,387.669 C133.257,388.486 132.514,389.156 131.605,389.156 C130.697,389.156 129.97,388.486 129.97,387.669 C129.97,386.85 130.697,386.182 131.605,386.182 C132.514,386.182 133.257,386.85 133.257,387.669" fill="#E05A2B"/>
      <path d="M112.907,391.245 C112.907,392.064 112.164,392.73 111.272,392.73 C110.38,392.73 109.636,392.064 109.636,391.245 C109.636,390.418 110.38,389.758 111.272,389.758 C112.164,389.758 112.907,390.418 112.907,391.245" fill="#E05A2B"/>
      <path d="M147.76,367.673 C147.76,368.498 147.017,369.17 146.125,369.17 C145.233,369.17 144.489,368.498 144.489,367.673 C144.489,366.865 145.233,366.196 146.125,366.196 C147.017,366.196 147.76,366.865 147.76,367.673" fill="#E05A2B"/>
      <path d="M139.65,348.909 C139.65,349.745 138.907,350.406 138.015,350.406 C137.123,350.406 136.379,349.745 136.379,348.909 C136.379,348.101 137.123,347.422 138.015,347.422 C138.907,347.422 139.65,348.101 139.65,348.909" fill="#E05A2B"/>
      <path d="M176.17,357.019 C176.17,357.861 175.427,358.516 174.517,358.516 C173.609,358.516 172.884,357.861 172.884,357.019 C172.884,356.211 173.609,355.542 174.517,355.542 C175.427,355.542 176.17,356.211 176.17,357.019" fill="#E05A2B"/>
      <path d="M164.857,384.273 C164.857,385.083 164.13,385.753 163.237,385.753 C162.328,385.753 161.603,385.083 161.603,384.273 C161.603,383.458 162.328,382.781 163.237,382.781 C164.13,382.781 164.857,383.458 164.857,384.273" fill="#E05A2B"/>
      <path d="M198.436,383.292 C198.436,384.119 197.693,384.786 196.783,384.786 C195.892,384.786 195.15,384.119 195.15,383.292 C195.15,382.484 195.892,381.812 196.783,381.812 C197.693,381.812 198.436,382.484 198.436,383.292" fill="#E05A2B"/>
      <path d="M194.884,405.889 C194.884,406.704 194.141,407.383 193.25,407.383 C192.342,407.383 191.598,406.704 191.598,405.889 C191.598,405.069 192.342,404.402 193.25,404.402 C194.141,404.402 194.884,405.069 194.884,405.889" fill="#E05A2B"/>
      <path d="M152.616,402.014 C152.616,402.839 151.873,403.501 150.964,403.501 C150.056,403.501 149.329,402.839 149.329,402.014 C149.329,401.187 150.056,400.527 150.964,400.527 C151.873,400.527 152.616,401.187 152.616,402.014" fill="#E05A2B"/>
      <path d="M166.161,423.635 C166.161,424.454 165.418,425.122 164.525,425.122 C163.634,425.122 162.89,424.454 162.89,423.635 C162.89,422.82 163.634,422.148 164.525,422.148 C165.418,422.148 166.161,422.82 166.161,423.635" fill="#E05A2B"/>
      <path d="M133.901,426.221 C133.901,427.038 133.158,427.715 132.249,427.715 C131.341,427.715 130.614,427.038 130.614,426.221 C130.614,425.413 131.341,424.734 132.249,424.734 C133.158,424.734 133.901,425.413 133.901,426.221" fill="#E05A2B"/>
      <path d="M109.059,414.798 C109.059,415.625 108.316,416.295 107.424,416.295 C106.532,416.295 105.788,415.625 105.788,414.798 C105.788,413.983 106.532,413.306 107.424,413.306 C108.316,413.306 109.059,413.983 109.059,414.798" fill="#E05A2B"/>
      <path d="M125.824,407.574 C125.824,408.399 125.097,409.061 124.172,409.061 C123.28,409.061 122.537,408.399 122.537,407.574 C122.537,406.749 123.28,406.087 124.172,406.087 C125.097,406.087 125.824,406.749 125.824,407.574" fill="#E05A2B"/>
      <path d="M165.203,334.631 C162.972,336.745 153.59,341.757 150.733,338.447 C148.668,336.067 152.087,332.451 153.59,331.079 C157.703,327.329 165.467,323.63 171.099,323.158 C168.736,326.708 168.736,331.262 165.203,334.631" fill="#6DB74C"/>
      <path d="M964,521 L40.064,521 L40.064,442.466 L964,442.466 z" fill="#9E9F9E"/>
    </g>
  </g>
</svg>
